inDegrees=yes
name=IK-live
DataType=double
version=3
OpenSimVersion=4.1
endheader
time	pelvis_tilt	pelvis_list	pelvis_rotation	pelvis_tx	pelvis_ty	pelvis_tz	hip_flexion_r	hip_adduction_r	hip_rotation_r	knee_angle_r	ankle_angle_r	subtalar_angle_r	mtp_angle_r	hip_flexion_l	hip_adduction_l	hip_rotation_l	knee_angle_l	ankle_angle_l	subtalar_angle_l	mtp_angle_l	lumbar_extension	lumbar_bending	lumbar_rotation	neck_flex	neck_latbend	neck_rot	arm_flex_r	arm_add_r	arm_rot_r	elbow_flex_r	pro_sup_r	wrist_flex_r	wrist_dev_r	arm_flex_l	arm_add_l	arm_rot_l	elbow_flex_l	pro_sup_l	wrist_flex_l	wrist_dev_l
52.3933066	0.3590921805233945	-2.598928069272167	32.75499131562617	0	1	0	60.66532720195836	-6.269649687508237	-6.328249741427125	-56.34791413107344	-5.817765438935135	-7.471112588716682	0	62.82571102662292	-1.71480967648577	0.4370637539189905	-61.53465019580263	-3.34977710348198	-3.468099313865794	0	-1.775331421710256	4.523261274233896	-0.6258858245903828	-18.42100506728347	-5.920171693429522	3.1477320333066	31.84565963243496	7.608002623771837	25.00114067358704	53.84560457040525	55.39510007494776	-25.55393422911812	-24.99211255389349	17.82453043133109	-0.6420810952886493	36.60276074279849	67.35286801610606	47.38849680423596	-23.56573526750235	-24.97296302657577
52.423318	0.3613374271719098	-2.598386457231466	32.75854128096334	0	1	0	60.67145561513936	-6.267202493909996	-6.316999382519123	-56.35074266145474	-5.829143122496045	-7.441557549143645	0	62.82688007101433	-1.718337429627721	0.4350365445641375	-61.53976357734564	-3.347392415114144	-3.465911751614266	0	-1.835648101386533	4.627892201192419	-0.6247872119962237	-18.34210812463776	-6.027684735512305	3.121084585298558	31.68276414663793	7.700648559259305	25.25007097911153	53.60886224101925	53.72491644963677	-25.0238901605834	-24.99173471129178	17.90453348392644	-0.5815090173282617	36.58430641302098	67.38912728257998	47.33929220408677	-23.56064030284356	-24.9729319616346
52.4732971	0.3528708267257983	-2.605487481513994	32.7769384909794	0	1	0	60.68282451726136	-6.259162322116376	-6.307993523037946	-56.37107806211134	-5.812109734939845	-7.438199645505986	0	62.8539668939889	-1.67651195263372	0.4367276641435703	-61.56800743149767	-3.331095302800944	-3.496969301787711	0	-1.888398456705882	4.713232409661367	-0.6844236762681596	-18.25057553764148	-6.149939941594954	3.069739594460406	31.67509126548993	7.703896247678425	25.08553044429993	53.64725593469913	53.00606831490583	-24.61251068593001	-24.99106645519141	17.99009438581068	-0.5589995551699357	36.57423365570538	67.4749480354636	47.19952930966719	-23.61751478767393	-24.97323172034095
52.4932882	0.3253494430968799	-2.603219869929684	32.80983581100729	0	1	0	60.70544094911988	-6.298729897464463	-6.30647768111192	-56.37559114686424	-5.810927118943957	-7.440927235295218	0	62.88150094588347	-1.630736527069939	0.4356348172101276	-61.5726692859526	-3.331229303214666	-3.488189055670584	0	-1.848799207629966	4.672646827912811	-0.7734215714780212	-18.25295992870321	-6.145935740684237	3.085664787219535	31.73060551671251	7.687835363283597	24.94628250939126	53.87173855290562	53.52213953740322	-24.84674962436949	-24.99145569087626	17.96131692507572	-0.644307007809065	36.59741993562312	67.57058041420821	47.0918871893328	-23.67691362549122	-24.97364026363216
52.5233242	0.318709306498231	-2.610636652290587	32.83165982938951	0	1	0	60.70820339738979	-6.311752597978303	-6.318389374068501	-56.36724810495735	-5.818340424399047	-7.433535006881423	0	62.89525456241009	-1.593925792857682	0.4550676561589778	-61.57812603867232	-3.332983725474908	-3.494611884174224	0	-1.815120447650231	4.666392569233306	-0.8146669579788975	-18.25548549010813	-6.164120525501757	3.122919367822413	31.75452401850096	7.625469325338519	24.79953584787262	54.09429555418387	54.11116111313873	-25.27713897574419	-24.9919373636876	17.92289863976363	-0.6807422748511579	36.59486461300199	67.59615028982492	47.16804237900847	-23.66711182553376	-24.97300981378018
